<svg id="Layer_1" xmlns="http://www.w3.org/2000/svg" width="138" height="90.7" viewBox="0 0 138 90.7"><style>.st0{fill:#1ca9e5}.st1{fill:#ceae39}</style><path class="st0" d="M47.1 39.5c0-.8-.3-1.4-.8-1.4-1.4 0-3.4 4.4-4.6 9.4 3.8-2.5 5.4-5.6 5.4-8M9.7 81.1c0 1.1.4 3 1.7 3 5.2 0 11.7-13.7 12-24.4-9 6.2-13.7 15.1-13.7 21.4m47-46.4h5.4L59.4 44l4.2-1.1 2.4-8.2h5l-4.1 14 6.7-8.9 1.5-5H80l-2.9 9.9c-.1.4-.7 2.5-.2 2.5.5 0 1.8-2.3 3.2-4.9 1.6-2.8 2.9-5.8 3.5-7.5h4.9l-2.4 8.4 6.2-8.4h43.2L31.4 79.3l2-7 81.9-33.5h-16L97.8 44l-5.1 1.6 2-6.8h-2.5L85.1 48l-4.4 1.5c.2-2.2.6-4.4 1.1-6.6l-2 3.8c-1.6 3-3 5.4-5.5 5.4-1.8 0-2.6-1.7-2.6-3.9 0-.8.1-1.6.3-2.5l-6.7 8.9-5.5 1.8 2.8-9.7-4.2 1.1-2.9 10.1-6 2 2.7-9.3-6.1 7.7c-2.6 3.3-5.2 5.1-7.3 5.1-4.1 0-4.6-6.7-4.3-9.4-2.2 1-3 1.4-3.7 1.8 1 14.4-13.7 34.3-23 34.3-2.9 0-5.1-2.2-5.1-7.3 0-7.4 5.6-18.3 20.6-26.8-.4-2.9-1.4-5.4-3.2-7v-.3c5.1-3.9 8.9-8.3 8.9-12.2 0-1.8-1.4-2.5-2.9-2.5-2.8 0-6.5 3.5-8.6 6.4h-1l1.6-5.6c3.8-5.1 10-6.9 13.3-6.9 3.4 0 6.3 1.3 6.3 5.4 0 4.9-4.2 9.9-10.4 13.7 1.4 1.6 2.4 3.5 2.9 5.5 1.5-.8 3.1-1.6 4.7-2.3 1.8-8.8 8.1-15.6 13.7-15.6 2.8 0 4.1 1.7 4.1 4 0 5.3-4.9 9.4-11.7 13-.2 1.2-.2 1.9-.2 2.6 0 2.4.5 3.5 1.4 3.5.6 0 1.3-.5 2.2-1.5l9.2-10.9 3.1-10.6zm61.4 32.9l.2-1.8h4.3v-2.4h-6.5l-.7 6.6c.8-.3 1.6-.4 2.3-.4 1.7 0 2.6.7 2.6 1.7 0 .8-.7 1.6-2 1.6-1 0-2.1-.4-3-1.1l-.3 2.6c.9.6 2.2 1.1 3.5 1.1 3.1 0 4.8-1.8 4.8-4.2 0-2.8-2.7-4.2-5.2-3.7zm-4.3-.7c0-2-1.6-3.8-4.4-3.8-2.7 0-4.4 1.7-4.4 4.3v.1h2.9v-.1c0-1.2.6-1.9 1.6-1.9.9 0 1.4.6 1.4 1.4 0 .6-.3 1.2-.9 1.9l-5.3 6.3h9.1v-2.5h-3.6l2.1-2.4c1-1.1 1.5-2 1.5-3.3zm-25.2-.8h2.6v9.1h2.9V63.4H90zm11.2-2.9c-2.8 0-4.5 1.9-4.5 4.4 0 2.2 1.7 3.7 3.7 3.7.4 0 .6 0 1.1-.1l-2.7 4h3.3l1.7-2.5c1.3-2 2.1-3.5 2.1-5.2-.2-2.6-1.9-4.3-4.7-4.3zm0 6c-1 0-1.8-.7-1.8-1.8 0-1 .7-1.8 1.8-1.8s1.8.8 1.8 1.8c0 1.1-.7 1.8-1.8 1.8z"/><path class="st1" d="M64.1 27.8l3.4-10.4-8.9-6.4h10.9L72.9.6 76.3 11h10.9l-8.8 6.4 3.3 10.4-8.8-6.4z"/></svg>