<svg id="Layer_1" xmlns="http://www.w3.org/2000/svg" xmlns:xlink="http://www.w3.org/1999/xlink" viewBox="0 0 150 120"><style>.st0{clip-path:url(#SVGID_2_);fill-rule:evenodd;clip-rule:evenodd;fill:#68bd49}</style><defs><path id="SVGID_1_" d="M-.1 6.7h150V114H-.1z"/></defs><clipPath id="SVGID_2_"><use xlink:href="#SVGID_1_" overflow="visible"/></clipPath><path class="st0" d="M148.8 109.6c-.4.1-.8.2-1.1.2-.3 0-.5-.1-.6-.2-.1-.1-.1-.3-.1-.5 0-.6.1-1.1.3-1.7.2-.5.4-1.1.7-1.6.2-.5.5-1.1.7-1.7.2-.6.3-1.2.3-1.9 0-.8-.3-1.3-.8-1.8s-1.2-.7-1.9-.7c-.8 0-1.5.1-2.1.3-.7.2-1.3.5-1.9.9-.6.4-1.2.8-1.7 1.3s-1.1 1-1.6 1.5c.8-2.4 1.1-3.6 1.1-3.6h-3l-3.5 11.9h2.9c0-.1.1-.2.2-.4s.2-.5.3-.7c.1-.3.2-.5.3-.7.1-.2.2-.4.2-.5.3-.8.8-1.6 1.4-2.5.6-.9 1.2-1.6 1.9-2.3.7-.7 1.4-1.3 2.1-1.7.7-.5 1.4-.7 2-.7.4 0 .6.3.6.9 0 .6-.1 1.2-.3 1.7-.2.6-.4 1.1-.7 1.7-.3.5-.5 1.1-.7 1.6-.2.5-.3 1.1-.3 1.7 0 .4.1.8.2 1.1.1.3.3.5.6.7.2.2.5.3.8.4.3.1.6.1.9.1.5 0 1-.1 1.5-.2.4-.1.8-.3 1.1-.4.4-.2.7-.4 1-.6l.4-1.9c-.4 0-.8.2-1.2.3M118.9 97.6c0-1.9-.8-3.4-2.5-4.3-1.6-1-4-1.4-7.1-1.4-1.8 0-3.4 0-4.8.1-1.3.1-2.5.2-3.4.3-.9.1-1.6.2-2.1.3-.5.1-.8.2-1 .2l-.9 2.6c1-.2 1.9-.3 2.6-.4l2.1-.3c.7-.1 1.5-.2 2.4-.2.9-.1 2.1-.1 3.7-.1.8 0 1.6 0 2.5.1.9.1 1.7.2 2.4.4s1.3.6 1.8 1 .7 1.1.7 1.9c0 1-.3 2-1 2.8-.7.8-1.5 1.5-2.5 2.1-1 .6-2.1 1-3.3 1.3-1.2.3-2.3.5-3.3.5l2.5-9.2h-3.1l-5 18.2h3.3l1.9-6.2c.9 0 1.8-.1 2.9-.2 1.1-.2 2.1-.4 3.1-.7 1.1-.3 2.1-.7 3.1-1.2s1.9-1.1 2.6-1.8c.8-.7 1.4-1.5 1.8-2.4.3-1.2.6-2.2.6-3.4M70.8 100.5c-.4-.3-.9-.5-1.4-.6-.5-.1-1.1-.2-1.7-.2-1.1 0-2.2.2-3.3.5-1.1.3-2.2.9-3.2 1.5-1 .7-1.7 1.5-2.4 2.4-.6 1-.9 2-.9 3.2 0 1 .2 1.8.5 2.4.3.6.8 1.2 1.3 1.5.5.4 1.2.6 1.9.8.7.2 1.5.2 2.3.2 1.2 0 2.3-.1 3.5-.4 1.1-.3 2.2-.7 3.3-1.3l.5-2.3c-1.1.5-2.1.8-3.2 1.1-1.1.3-2.2.4-3.4.4-.4 0-.8 0-1.2-.1-.4-.1-.8-.2-1.1-.4-.3-.2-.6-.4-.8-.7-.2-.3-.3-.7-.3-1.2 0-.7.2-1.4.6-2 .4-.6.9-1.2 1.5-1.7s1.2-.9 1.9-1.2c.7-.3 1.4-.4 2-.4 1.2 0 1.8.5 1.8 1.6v.5c0 .2-.1.3-.1.5h2.9c.3-.6.4-1.1.4-1.5 0-.7-.1-1.2-.4-1.7-.2-.3-.6-.7-1-.9M55.4 100.5c-.4-.3-.9-.5-1.4-.6-.5-.1-1.1-.2-1.7-.2-1.1 0-2.2.2-3.3.5-1.1.3-2.2.9-3.2 1.5-1 .7-1.7 1.5-2.4 2.4-.6 1-.9 2-.9 3.2 0 1 .2 1.8.5 2.4.3.6.8 1.2 1.3 1.5.5.4 1.2.6 1.9.8.7.2 1.5.2 2.3.2 1.2 0 2.3-.1 3.5-.4 1.1-.3 2.2-.7 3.3-1.3l.5-2.3c-1.1.5-2.1.8-3.2 1.1-1.1.3-2.2.4-3.4.4-.4 0-.8 0-1.2-.1-.4-.1-.8-.2-1.1-.4-.3-.2-.6-.4-.8-.7-.2-.3-.3-.7-.3-1.2 0-.7.2-1.4.6-2 .4-.6.9-1.2 1.5-1.7s1.2-.9 1.9-1.2c.7-.3 1.4-.4 2-.4 1.2 0 1.8.5 1.8 1.6v.5c0 .2-.1.3-.1.5h2.9c.3-.6.4-1.1.4-1.5 0-.7-.1-1.2-.4-1.7-.2-.3-.6-.7-1-.9M22 100.4c-.6.5-1.2.9-1.9 1.3s-1.5.7-2.2 1c-.7.3-1.5.5-2.2.7-.7.2-1.3.3-1.9.4 0 .1 0 .3.1.5 0 .2.1.4.1.6 0 .2.1.4.1.5 0 .2 0 .2.1.3 1.5 0 2.9-.2 4.4-.6 1.5-.4 2.9-.9 4.1-1.7 1.2-.7 2.2-1.6 3-2.7.8-1.1 1.2-2.3 1.2-3.6 0-1-.2-1.9-.7-2.6-.4-.7-1-1.3-1.7-1.8s-1.5-.8-2.3-1c-.9-.2-1.7-.3-2.5-.3-1.3 0-2.6.2-3.8.6-1.2.4-2.3 1-3.2 1.7-1 .7-1.8 1.6-2.4 2.7-.7 1.1-1.2 2.2-1.5 3.6 0 .1 0 .2-.1.4 0 .2-.1.5-.3 1.1-.1.5-.3 1.3-.6 2.3s-.6 2.4-1 4.1c-.3-.1-.7-.1-1.2-.1s-1.1.1-1.8.2c-.6.1-1.2.3-1.8.5-.6.3-1 .6-1.4 1-.4.4-.6.9-.6 1.4 0 .4.1.8.4 1 .3.2.6.4 1 .5.4.1.7.2 1.1.2h.8c.5 0 .9 0 1.3-.1s.8-.1 1.2-.3c.4-.1.7-.3 1.1-.5.4-.2.7-.5 1.1-.8.7.3 1.4.7 2 1.1.7.4 1.3.7 2 1 .7.3 1.4.5 2.1.7.7.2 1.5.3 2.3.3 1.2 0 2.4-.1 3.3-.4 1-.3 1.8-.6 2.5-.9.7-.3 1.2-.7 1.6-1 .4-.3.6-.5.6-.5.1-.9.2-1.6.2-2 .1-.4.1-.7.1-.7l-1.8 1.2c-.5.3-1.1.6-1.6.9-.5.2-1.1.4-1.7.5-.6.1-1.2.2-2 .2-.7 0-1.4-.1-2.1-.2-.7-.1-1.4-.3-2-.6-.7-.3-1.4-.5-2.1-.9-.7-.3-1.5-.7-2.3-1.1.3-.9.6-2.1 1-3.5s.9-3.1 1.5-4.9c.3-.9.7-1.7 1.2-2.4s1.1-1.4 1.8-1.9 1.4-.9 2.2-1.2c.8-.3 1.6-.5 2.5-.5.3 0 .7.1 1.2.2s1 .3 1.5.5.9.5 1.2.9c.4.4.5.8.5 1.4 0 .7-.2 1.3-.5 1.9-.2.4-.7.9-1.2 1.4M131.2 100.4c-.5-.2-1-.4-1.5-.5-.5-.1-1-.1-1.5-.1-1.3 0-2.6.2-3.8.6-1.2.4-2.3 1-3.3 1.7-.9.7-1.7 1.5-2.3 2.4-.6.9-.8 1.8-.8 2.8 0 1 .2 1.9.6 2.5s.8 1.2 1.4 1.5c.6.4 1.3.6 2 .8.8.1 1.5.2 2.4.2.6 0 1.1 0 1.8-.1.6-.1 1.2-.2 1.8-.4l1.8-.6c.6-.2 1.1-.5 1.6-.7l.5-2.6c-1.1.6-2.3 1.1-3.6 1.5-1.3.4-2.6.6-3.8.6-.3 0-.7 0-1-.1-.4-.1-.7-.1-1-.3-.3-.1-.6-.3-.8-.6-.2-.2-.3-.5-.3-.9v-.2c.2 0 .5 0 1-.1.5 0 1.1-.1 1.7-.2.6-.1 1.3-.2 2-.3.7-.1 1.3-.3 1.9-.5.5-.1 1-.3 1.6-.6.6-.2 1.1-.5 1.6-.8.5-.3.9-.7 1.2-1.1.3-.4.5-1 .5-1.6 0-.6-.1-1.1-.4-1.5-.4-.3-.8-.6-1.3-.8m-2.1 3.2c-.2.2-.4.4-.7.6-.3.2-.5.3-.8.4-.3.1-.5.2-.7.3-.9.3-1.8.5-2.7.8-.9.2-1.8.3-2.8.3.2-.6.5-1.1.9-1.6s.9-.9 1.5-1.3c.5-.4 1.1-.6 1.7-.8.6-.2 1.2-.3 1.8-.3h.6c.2 0 .4.1.6.1.2.1.4.2.5.3.1.1.2.3.2.6.1.2 0 .4-.1.6M86.6 100.4c-.5-.2-1-.4-1.5-.5-.5-.1-1-.1-1.5-.1-1.3 0-2.6.2-3.8.6-1.2.4-2.3 1-3.3 1.7-.9.7-1.7 1.5-2.3 2.4-.6.9-.8 1.8-.8 2.8 0 1 .2 1.9.6 2.5.4.6.8 1.2 1.4 1.5.6.4 1.3.6 2 .8.8.1 1.5.2 2.4.2.6 0 1.1 0 1.8-.1.6-.1 1.2-.2 1.8-.4l1.8-.6c.6-.2 1.1-.5 1.6-.7l.5-2.6c-1.1.6-2.3 1.1-3.6 1.5-1.3.4-2.6.6-3.8.6-.3 0-.7 0-1-.1-.4-.1-.7-.1-1-.3-.3-.1-.6-.3-.8-.6-.2-.2-.3-.5-.3-.9v-.2c.2 0 .5 0 1-.1.5 0 1.1-.1 1.7-.2.6-.1 1.3-.2 2-.3.7-.1 1.3-.3 1.9-.5.5-.1 1-.3 1.6-.6.6-.2 1.1-.5 1.6-.8.5-.3.9-.7 1.2-1.1.3-.4.5-1 .5-1.6 0-.6-.1-1.1-.4-1.5-.5-.3-.8-.6-1.3-.8m-2.2 3.2c-.2.2-.4.4-.7.6-.3.2-.5.3-.8.4-.3.1-.5.2-.7.3-.9.3-1.8.5-2.7.8-.9.2-1.8.3-2.8.3.2-.6.5-1.1.9-1.6s.9-.9 1.5-1.3c.5-.4 1.1-.6 1.7-.8.6-.2 1.2-.3 1.8-.3h.6c.2 0 .4.1.6.1.2.1.4.2.5.3.1.1.2.3.2.6.2.2.1.4-.1.6M39.8 100.4c-.5-.2-1-.4-1.5-.5-.5-.1-1-.1-1.5-.1-1.3 0-2.6.2-3.8.6-1.2.4-2.3 1-3.3 1.7-.9.7-1.7 1.5-2.3 2.4-.6.9-.8 1.8-.8 2.8 0 1 .2 1.9.6 2.5.4.6.8 1.2 1.4 1.5.6.4 1.3.6 2 .8.8.1 1.5.2 2.4.2.6 0 1.1 0 1.8-.1.6-.1 1.2-.2 1.8-.4l1.8-.6c.6-.2 1.1-.5 1.6-.7l.5-2.6c-1.1.6-2.3 1.1-3.6 1.5-1.3.4-2.6.6-3.8.6-.3 0-.7 0-1-.1-.4-.1-.7-.1-1-.3-.3-.1-.6-.3-.8-.6-.2-.2-.3-.5-.3-.9v-.2c.2 0 .5 0 1-.1.5 0 1.1-.1 1.7-.2.6-.1 1.3-.2 2-.3.7-.1 1.3-.3 1.9-.5.5-.1 1-.3 1.6-.6.6-.2 1.1-.5 1.6-.8.5-.3.9-.7 1.2-1.1.3-.4.5-1 .5-1.6 0-.6-.1-1.1-.4-1.5-.5-.3-.9-.6-1.3-.8m-2.2 3.2c-.2.2-.4.4-.7.6-.3.2-.5.3-.8.4-.3.1-.5.2-.7.3-.9.3-1.8.5-2.7.8-.9.2-1.8.3-2.8.3.2-.6.5-1.1.9-1.6s.9-.9 1.5-1.3c.5-.4 1.1-.6 1.7-.8.6-.2 1.2-.3 1.8-.3h.6c.2 0 .4.1.6.1.2.1.4.2.5.3.1.1.2.3.2.6.2.2.1.4-.1.6M54.3 59.8c1.5 0 2.1-1.3 3.2-2.7-.8-.4-2-1.3-2.9-1.3-1.1 0-2.2.7-2.2 2 .1 1.1.7 2 1.9 2"/><path class="st0" d="M74.9 76.2c19.2 0 34.8-15.6 34.8-34.8S94.1 6.7 74.9 6.7c-19.2 0-34.8 15.6-34.8 34.8s15.6 34.7 34.8 34.7M70.3 9.8c1.5-.2 3.1-.3 4.7-.3 3.4 0 6.6.5 9.6 1.5-1.8 4.1-11.3 25.9-17.6 35.3l-6.2-2.5c1.8-11.2 8.2-30.3 9.5-34m-9.9 41.4l.5-4.9.3-.7 4.1 1.6-.3.8-3 3.9s-.4.6-1 .4c-.6-.3-.6-1.1-.6-1.1m-3.9 1.1c7.8 2 29.6 11.5 47.4 2.6-1.8 3.8-4.2 7.1-7.2 9.9-9.6 1.2-24.5.1-36.8-6.5 0 0-.7 1.6-1.1 2.1-1.7 2.8-5.8 3.3-7.9 1.1-3.5-3.6-.9-10.2 5.6-9.2"/></svg>